<?xml version="1.0" encoding="UTF-8"?>
<svg id="Layer_1" data-name="Layer 1" xmlns="http://www.w3.org/2000/svg" viewBox="0 0 336.99 117.56">
  <defs>
    <style>
      .cls-1 {
        fill: #ffa300;
      }

      .cls-2 {
        fill: #fff;
      }

      .cls-3 {
        fill: #ffce00;
      }

      .cls-4 {
        fill: #ff5b00;
      }
    </style>
  </defs>
  <g>
    <path class="cls-2" d="M15.98,47.42h9.54v4.5h1.87c2.05-3.35,4.03-5.18,8.46-5.18,6.19,0,9.58,3.28,9.61,11.41v32.47h-9.54V57.32c-.04-2.48-1.4-3.6-4.07-3.6-2.38,0-5.4,1.3-6.34,3.38v33.51H15.98V47.42Z"/>
    <path class="cls-2" d="M51.69,79.31c-.29-5.04-.25-16.23,0-20.48,.58-8.67,4.64-12.09,14.04-12.09s13.35,3.42,13.75,11.7c.07,1.73,.14,7.85-.07,12.2h-18.21c0,3.1,.07,6.23,.18,9.75,.07,2.7,1.33,3.74,4.43,3.74s4-1.04,4.14-3.82c.07-1.44,.14-3.28,0-6.05h9.47c.07,.83,.14,3.49,.07,5.04-.43,8.57-4.28,11.99-13.64,11.99-9.9,0-13.64-3.56-14.15-11.99Zm18.32-15.33c.04-2.84,.04-5.76-.07-6.55-.14-2.56-1.33-3.53-4.21-3.53-3.2,0-4.28,1.04-4.36,3.53-.07,2.27-.14,4.46-.14,6.55h8.78Z"/>
    <path class="cls-2" d="M89.49,67.87l-7.49-20.45h9.39l2.77,9.03,1.01,7.6h1.87l1.08-7.6,2.7-9.03h9.4l-7.42,20.62,7.56,22.57h-9.39l-2.92-10.87-1.01-8.78h-1.8l-1.01,8.78-2.99,10.87h-9.4l7.63-22.75Z"/>
    <path class="cls-2" d="M116.17,79.21l-.07-24.58h-4.1v-7.2h4.32v-12.24h9.68v12.24h7.99v7.2h-8.24l.11,25.7c0,3.1,1.33,3.85,5.11,3.85,1.33,0,2.34-.07,3.82-.07v6.84c-1.15,.22-2.38,.36-3.85,.36-10.62,0-14.72-3.35-14.76-12.09Z"/>
  </g>
  <g>
    <path class="cls-2" d="M255.78,87.2h-1.08v4.5h-9.72V34.1h9.72v18.9h1.69c2.05-3.35,3.89-5.18,8.46-5.18,6.01,0,9.11,3.24,9.47,11.41,.22,5.54,.22,16.31,0,21.74-.36,8.17-4.03,11.41-10.08,11.41-4.64,0-6.41-1.84-8.46-5.18Zm8.82-5.44c.36-6.55,.43-16.05,.07-23.22-.14-2.45-1.12-3.74-3.89-3.74-2.45,0-5.11,1.26-6.08,3.38v23.83c.97,2.16,3.74,3.38,6.08,3.38,2.74,0,3.71-1.15,3.82-3.64Z"/>
    <path class="cls-2" d="M280.48,34.1h9.97v7.52h-9.97v-7.52Zm.22,14.4h9.54v43.19h-9.54V48.5Z"/>
    <path class="cls-2" d="M295.27,85.65l15.37-30.13-15.05,.04v-7.02l25.41-.04v6.23l-15.62,29.95h15.37v7.02h-25.49v-6.05Z"/>
  </g>
  <g>
    <path class="cls-4" d="M201.88,46.68c3.09,3.01,4.72,7.02,4.89,12.04h-36.87c.67-5.02,2.68-9.03,6.02-12.04,3.34-3.01,7.73-4.51,13.17-4.51s9.7,1.5,12.79,4.51Z"/>
    <path class="cls-4" d="M224.52,46.17l-8.21,8.21c.67,2.9,1,6.06,1,9.48v3.14h-47.41c.17,2.51,.77,4.91,1.82,7.21,1.04,2.3,2.4,4.31,4.07,6.02,1.67,1.71,3.64,3.07,5.9,4.07,2.26,1,4.72,1.5,7.4,1.5,4.26,0,7.85-.75,10.78-2.26,2.93-1.5,5.56-3.72,7.9-6.65l7.4,5.77c-3.51,4.52-7.36,7.67-11.53,9.47-4.19,1.8-9.03,2.7-14.55,2.7-4.6,0-8.74-.82-12.41-2.45-3.68-1.63-6.8-3.83-9.34-6.59-2.55-2.76-4.51-6.02-5.9-9.78-1.38-3.77-2.07-7.78-2.07-12.04,0-4.51,.75-8.67,2.26-12.48,1.5-3.81,3.59-7.07,6.27-9.78,2.68-2.72,5.85-4.83,9.53-6.34,3.37-1.38,7.04-2.13,10.98-2.24l8.57-8.57c-2.78-.61-5.68-.93-8.64-.93-22.28,0-40.33,18.06-40.33,40.33s18.05,40.33,40.33,40.33,40.32-18.06,40.32-40.33c0-6.4-1.49-12.45-4.14-17.82Z"/>
    <g>
      <path class="cls-4" d="M235.25,35.96c-1.45,.19-2.89,.4-4.33,.62-.22,.03-.28,0-.31-.23-.68-4.85-2.61-9.15-5.86-12.82-4.25-4.8-9.63-7.37-15.99-7.94-1.25-.11-2.51-.12-3.76-.04-.19,.01-.23-.04-.24-.22-.08-1.5-.16-3-.25-4.5-.01-.19,.02-.25,.22-.26,5.47-.28,10.66,.77,15.55,3.26,1.72,.88,3.33,1.94,4.83,3.17,5.79,4.89,9.3,11.07,10.41,18.59,.04,.25,0,.34-.27,.37Z"/>
      <path class="cls-1" d="M227.34,38.5c-1.46,.19-2.91,.4-4.36,.62-.22,.03-.28,0-.31-.23-.48-3.52-1.87-6.63-4.22-9.3-3.09-3.51-7.01-5.4-11.65-5.82-.93-.08-1.85-.09-2.78-.02-.17,.01-.22-.02-.23-.2-.07-1.49-.16-2.99-.25-4.48-.01-.19,.04-.23,.22-.24,4.72-.23,9.14,.74,13.23,3.15,.89,.53,1.73,1.13,2.8,1.99,4.22,3.58,6.91,8.38,7.77,14.19,.03,.22,0,.3-.24,.33Z"/>
      <path class="cls-3" d="M219.24,40.88c-.1,.02-.15,.03-.2,.03-1.51,.22-3.03,.43-4.54,.65-.15,.02-.19-.01-.21-.16-.31-2.4-1.29-4.48-2.94-6.25-1.52-1.63-3.41-2.57-5.58-3-1.05-.21-2.1-.28-3.16-.21-.18,.01-.22-.03-.23-.2-.08-1.52-.16-3.04-.25-4.56,0-.16,.04-.19,.18-.2,4.51-.21,8.56,.95,11.92,4.07,2.8,2.6,4.42,5.84,4.95,9.63,0,.06,.03,.12,.06,.19Z"/>
    </g>
  </g>
</svg>